<svg width="25" height="25" viewBox="0 0 512 512" fill="none" xmlns="http://www.w3.org/2000/svg">
<path d="M367.68 480H80.32C72.7513 480.003 65.2686 478.396 58.3692 475.284C51.4697 472.172 45.3117 467.628 40.3042 461.952C35.2967 456.277 31.5545 449.601 29.3264 442.367C27.0983 435.134 26.4352 427.509 27.3813 420L59.3813 164C61.021 151.114 67.3007 139.267 77.045 130.677C86.7893 122.088 99.3301 117.344 112.32 117.333H259.936C262.765 117.333 265.478 118.457 267.478 120.458C269.479 122.458 270.603 125.171 270.603 128C270.603 130.829 269.479 133.542 267.478 135.542C265.478 137.543 262.765 138.667 259.936 138.667H112.32C104.525 138.662 96.9958 141.504 91.147 146.657C85.2982 151.811 81.5317 158.922 80.5547 166.656L48.5547 422.656C47.9942 427.161 48.3971 431.734 49.7366 436.071C51.0762 440.409 53.3219 444.413 56.3251 447.817C59.3282 451.222 63.0203 453.95 67.1569 455.82C71.2935 457.69 75.7802 458.661 80.32 458.667H367.68C369.046 458.409 370.449 458.424 371.81 458.71C373.17 458.996 374.461 459.547 375.607 460.333C376.754 461.119 377.734 462.124 378.491 463.289C379.249 464.455 379.769 465.758 380.021 467.125C380.53 469.922 379.921 472.806 378.325 475.157C376.729 477.509 374.274 479.141 371.488 479.701C370.23 479.915 368.956 480.015 367.68 480ZM392.203 289.813C389.602 289.812 387.091 288.861 385.142 287.138C383.193 285.415 381.941 283.04 381.621 280.459L367.445 166.656C366.468 158.922 362.702 151.811 356.853 146.657C351.004 141.504 343.475 138.662 335.68 138.667H300.288C297.459 138.667 294.746 137.543 292.746 135.542C290.745 133.542 289.621 130.829 289.621 128C289.621 125.171 290.745 122.458 292.746 120.458C294.746 118.457 297.459 117.333 300.288 117.333H335.68C348.671 117.344 361.214 122.089 370.958 130.682C380.703 139.274 386.981 151.123 388.619 164.011L402.795 277.824C403.145 280.63 402.366 283.461 400.63 285.693C398.894 287.925 396.342 289.376 393.536 289.728C393.094 289.783 392.648 289.811 392.203 289.813Z" fill="#207456"/>
<path d="M298.667 192C295.838 192 293.125 190.876 291.124 188.876C289.124 186.875 288 184.162 288 181.333V117.333C288 100.359 281.257 84.0808 269.255 72.0785C257.253 60.0762 240.974 53.3333 224 53.3333C207.026 53.3333 190.747 60.0762 178.745 72.0785C166.743 84.0808 160 100.359 160 117.333V181.333C160 184.162 158.876 186.875 156.876 188.876C154.875 190.876 152.162 192 149.333 192C146.504 192 143.791 190.876 141.791 188.876C139.79 186.875 138.667 184.162 138.667 181.333V117.333C138.667 94.7015 147.657 72.9967 163.66 56.9936C179.663 40.9905 201.368 32 224 32C246.632 32 268.337 40.9905 284.34 56.9936C300.343 72.9967 309.333 94.7015 309.333 117.333V181.333C309.333 184.162 308.21 186.875 306.209 188.876C304.209 190.876 301.496 192 298.667 192Z" fill="#207456"/>
<path d="M373.333 480C352.237 480 331.614 473.744 314.072 462.023C296.531 450.303 282.86 433.644 274.786 414.153C266.713 394.662 264.6 373.215 268.716 352.524C272.832 331.832 282.991 312.826 297.909 297.909C312.826 282.991 331.832 272.832 352.524 268.716C373.215 264.6 394.662 266.713 414.153 274.786C433.644 282.86 450.303 296.531 462.023 314.072C473.744 331.614 480 352.237 480 373.333C479.969 401.614 468.721 428.727 448.724 448.724C428.727 468.721 401.614 479.969 373.333 480ZM373.333 288C356.456 288 339.958 293.005 325.925 302.381C311.892 311.758 300.954 325.085 294.496 340.678C288.037 356.27 286.347 373.428 289.64 389.981C292.932 406.534 301.059 421.739 312.994 433.673C324.928 445.607 340.133 453.734 356.686 457.027C373.239 460.32 390.396 458.63 405.989 452.171C421.582 445.712 434.909 434.775 444.285 420.742C453.662 406.709 458.667 390.211 458.667 373.333C458.641 350.709 449.643 329.019 433.645 313.022C417.647 297.024 395.957 288.025 373.333 288Z" fill="#207456"/>
<path d="M373.333 416C370.504 416 367.791 414.876 365.791 412.876C363.79 410.875 362.667 408.162 362.667 405.333V341.333C362.667 338.504 363.79 335.791 365.791 333.791C367.791 331.79 370.504 330.667 373.333 330.667C376.162 330.667 378.875 331.79 380.876 333.791C382.876 335.791 384 338.504 384 341.333V405.333C384 408.162 382.876 410.875 380.876 412.876C378.875 414.876 376.162 416 373.333 416Z" fill="#FB532C"/>
<path d="M405.333 384H341.333C338.504 384 335.791 382.876 333.791 380.876C331.79 378.875 330.667 376.162 330.667 373.333C330.667 370.504 331.79 367.791 333.791 365.791C335.791 363.79 338.504 362.667 341.333 362.667H405.333C408.162 362.667 410.875 363.79 412.876 365.791C414.876 367.791 416 370.504 416 373.333C416 376.162 414.876 378.875 412.876 380.876C410.875 382.876 408.162 384 405.333 384Z" fill="#FB532C"/>
</svg>
