<svg width="26" height="20" viewBox="0 0 18 16" fill="none" xmlns="http://www.w3.org/2000/svg">
<path d="M6.77915 0.523622C3.36045 0.523622 0.579437 3.4506 0.579437 7.04873C0.579437 10.6469 3.36045 13.5738 6.77915 13.5738C7.82425 13.5738 8.85163 13.3128 9.71959 12.8095C9.78911 12.8975 9.8662 12.9786 9.94986 13.0518L11.7212 14.9161C11.8848 15.1098 12.0842 15.2663 12.3073 15.376C12.5304 15.4856 12.7725 15.5461 13.0186 15.5537C13.2647 15.5613 13.5097 15.5159 13.7385 15.4203C13.9674 15.3247 14.1752 15.1808 14.3493 14.9976C14.5234 14.8143 14.6601 14.5956 14.751 14.3547C14.8418 14.1139 14.885 13.856 14.8777 13.597C14.8705 13.3379 14.813 13.0832 14.7088 12.8484C14.6047 12.6136 14.456 12.4037 14.2719 12.2315L12.5006 10.3672C12.4143 10.2764 12.3193 10.1951 12.2172 10.1248C12.6954 9.21133 12.9966 8.14867 12.9966 7.03008C12.9966 3.43195 10.2156 0.504979 6.79686 0.504979L6.77915 0.523622ZM6.77915 2.38794C9.24132 2.38794 11.2075 4.45733 11.2075 7.04873C11.2075 8.27917 10.7824 9.41641 10.0384 10.2553C10.0207 10.274 10.003 10.2926 9.98529 10.3113C9.90162 10.3845 9.82454 10.4656 9.75501 10.5536C8.97562 11.2994 7.91281 11.7282 6.76144 11.7282C4.29927 11.7282 2.33307 9.65877 2.33307 7.06737C2.33307 4.47597 4.29927 2.40658 6.76144 2.40658L6.77915 2.38794Z" fill="#2b2a2a"/>
</svg>
